<?xml version="1.0" encoding="UTF-8"?>
<svg id="svg3815" width="818.87" height="431.71" clip-rule="evenodd" fill-rule="evenodd" stroke-linejoin="round" stroke-miterlimit="2" version="1.1" viewBox="0 0 818.87 431.71" xml:space="preserve" xmlns="http://www.w3.org/2000/svg" xmlns:cc="http://creativecommons.org/ns#" xmlns:dc="http://purl.org/dc/elements/1.1/" xmlns:rdf="http://www.w3.org/1999/02/22-rdf-syntax-ns#"><metadata id="metadata3819"><rdf:RDF><cc:Work rdf:about=""><dc:format>image/svg+xml</dc:format><dc:type rdf:resource="http://purl.org/dc/dcmitype/StillImage"/><dc:title/></cc:Work></rdf:RDF></metadata>
    <g id="g3788" transform="rotate(178.94 424.65 956.67)">
        <path id="path3786" transform="matrix(.69588 0 0 .69588 49.722 581.32)" d="m286.34 2324.3c-3.247-1.3-361.9-385.22-338.42-418.21 59.932-84.21 119.06-147.83 196.74-216.37 148.8-131.31 412.47-178.7 509.15-197.59 276.79-54.06 316.64-124.43 428.91-175.89 113.32-51.93 208.17 92.1 228.72 86.31 11.15-3.15-97.8 456.77-99.13 458.7" clip-path="url(#clipPath3921)" fill="url(#_Linear1)"/>
    </g>
    <g id="g3792" transform="matrix(-.69576 .012834 -.012834 -.69576 728.5 1255.5)">
        <path id="path3790" d="m286.34 2324.3c-3.247-1.3-361.9-385.22-338.42-418.21 59.932-84.21 119.06-147.83 196.74-216.37 148.8-131.31 412.47-178.7 509.15-197.59 276.79-54.06 316.64-124.43 428.91-175.89 113.32-51.93 208.17 92.1 228.72 86.31 11.15-3.15-97.8 456.77-99.13 458.7" clip-path="url(#clipPath3917)" fill="url(#_Linear2)"/>
    </g>
    
    <defs id="defs3813"><linearGradient id="_Linear1" x2="1" gradientTransform="matrix(437.86,1013.5,-758.56,327.72,182.63,1351.4)" gradientUnits="userSpaceOnUse"><stop id="stop3795" stop-color="#f6f6f6" offset="0"/><stop id="stop3797" stop-color="#0f80d0" offset=".35"/><stop id="stop3799" stop-color="#011671" offset=".49"/><stop id="stop3801" stop-color="#172561" offset="1"/></linearGradient><linearGradient id="_Linear2" x2="1" gradientTransform="matrix(296.34,877.63,-656.88,221.8,182.63,1351.4)" gradientUnits="userSpaceOnUse"><stop id="stop3804" stop-color="#f6f6f6" offset="0"/><stop id="stop3806" stop-color="#0f80d0" offset=".47"/><stop id="stop3808" stop-color="#011671" offset=".83"/><stop id="stop3810" stop-color="#172561" offset="1"/></linearGradient><clipPath id="clipPath3917"><rect id="rect3919" transform="rotate(181.06)" x="-1046.9" y="-1804.1" width="1214.8" height="638.39"/></clipPath><clipPath id="clipPath3921"><rect id="rect3923" transform="rotate(181.06)" x="-1158.9" y="-1904.1" width="1214.8" height="638.39"/></clipPath></defs>
</svg>
